<svg width="24" height="25" viewBox="0 0 24 25" fill="none" xmlns="http://www.w3.org/2000/svg">
<path d="M12 0.753754C7.2347 0.753754 2.96329 2.60868 0 5.57175L12 24.8438L24 5.57175C21.0501 2.62073 16.7653 0.753754 12 0.753754ZM5.32592 6.77625C5.32592 5.4513 6.52725 4.36725 7.99555 4.36725C9.46385 4.36725 10.6652 5.4513 10.6652 6.77625C10.6652 8.1012 9.46385 9.18525 7.99555 9.18525C6.52725 9.18525 5.32592 8.1012 5.32592 6.77625ZM12 16.4123C10.5317 16.4123 9.33037 15.3282 9.33037 14.0033C9.33037 12.6783 10.5317 11.5943 12 11.5943C13.4683 11.5943 14.6696 12.6783 14.6696 14.0033C14.6696 15.3282 13.4683 16.4123 12 16.4123Z" fill="white"/>
</svg>
